name rise45.9887peak57.8056fall74.9286.mot
datacolumns 19
datarows 20
range 15.34494100000000 15.37661200000000
endheader
time	ground_force1_vx	ground_force1_vy	ground_force1_vz	ground_force1_px	ground_force1_py	ground_force1_pz	ground_force2_vx	ground_force2_vy	ground_force2_vz	ground_force2_px	ground_force2_py	ground_force2_pz	ground_torque1_x	ground_torque1_y	ground_torque1_z	ground_torque2_x	ground_torque2_y	ground_torque2_z	
15.34494100000000	-35.84165800000000	773.81502000000000	56.77690000000000	0.11421500000000	0.00000000000000	0.11689100000000	-6.32902300000000	32.71224000000000	3.29721600000000	0.30432600000000	0.00000000000000	-0.08745000000000	0.00000000000000	23.18562000000000	0.00000000000000	0.00000000000000	0.95171100000000	0.00000000000000	
15.34660600000000	-36.05829300000000	771.69904799999995	56.62011000000000	0.11357900000000	0.00000000000000	0.11676900000000	-7.16759400000000	39.19496400000000	3.76091800000000	0.31116800000000	0.00000000000000	-0.08827600000000	0.00000000000000	23.07823000000000	0.00000000000000	0.00000000000000	1.12130200000000	0.00000000000000	
15.34827900000000	-36.27985600000000	769.48314900000003	56.44042000000000	0.11295800000000	0.00000000000000	0.11664300000000	-7.90938900000000	45.84435700000000	4.18212300000000	0.31735300000000	0.00000000000000	-0.08901800000000	0.00000000000000	22.96839500000000	0.00000000000000	0.00000000000000	1.28584700000000	0.00000000000000	
15.34994800000000	-36.50689000000000	767.16580299999998	56.23737000000000	0.11235200000000	0.00000000000000	0.11651300000000	-8.52769300000000	52.55544500000000	4.54711500000000	0.32297000000000	0.00000000000000	-0.08969000000000	0.00000000000000	22.85628000000000	0.00000000000000	0.00000000000000	1.44041300000000	0.00000000000000	
15.35161100000000	-36.73991800000000	764.74549600000000	56.01054000000000	0.11176000000000	0.00000000000000	0.11637900000000	-9.00266500000000	59.24111400000000	4.84549900000000	0.32809100000000	0.00000000000000	-0.09030400000000	0.00000000000000	22.74204600000000	0.00000000000000	0.00000000000000	1.58087300000000	0.00000000000000	
15.35327200000000	-36.97944500000000	762.22072900000001	55.75955600000000	0.11118200000000	0.00000000000000	0.11624100000000	-9.32199600000000	65.83655600000000	5.07055700000000	0.33277400000000	0.00000000000000	-0.09086800000000	0.00000000000000	22.62585000000000	0.00000000000000	0.00000000000000	1.70409800000000	0.00000000000000	
15.35494600000000	-37.22594700000000	759.59001000000001	55.48408500000000	0.11061800000000	0.00000000000000	0.11609800000000	-9.48085200000000	72.30119200000000	5.21925500000000	0.33707000000000	0.00000000000000	-0.09138900000000	0.00000000000000	22.50784200000000	0.00000000000000	0.00000000000000	1.80804400000000	0.00000000000000	
15.35660700000000	-37.47987200000000	756.85186099999999	55.18384500000000	0.11006700000000	0.00000000000000	0.11595200000000	-9.48122800000000	78.61826900000000	5.29193600000000	0.34101800000000	0.00000000000000	-0.09187500000000	0.00000000000000	22.38816800000000	0.00000000000000	0.00000000000000	1.89172500000000	0.00000000000000	
15.35827300000000	-37.74163500000000	754.00481500000001	54.85860100000000	0.10952900000000	0.00000000000000	0.11580100000000	-9.33084400000000	84.79257400000000	5.29180000000000	0.34465300000000	0.00000000000000	-0.09232900000000	0.00000000000000	22.26696800000000	0.00000000000000	0.00000000000000	1.95511600000000	0.00000000000000	
15.35994000000000	-38.01161600000000	751.04741600000000	54.50816900000000	0.10900300000000	0.00000000000000	0.11564600000000	-9.04177400000000	90.84675500000000	5.22423300000000	0.34800400000000	0.00000000000000	-0.09275600000000	0.00000000000000	22.14437500000000	0.00000000000000	0.00000000000000	1.99897600000000	0.00000000000000	
15.36161000000000	-38.29015300000000	747.97822299999996	54.13241600000000	0.10848900000000	0.00000000000000	0.11548600000000	-8.62895300000000	96.81681300000000	5.09607100000000	0.35109600000000	0.00000000000000	-0.09316000000000	0.00000000000000	22.02051500000000	0.00000000000000	0.00000000000000	2.02464800000000	0.00000000000000	
15.36327500000000	-38.57754300000000	744.79580699999997	53.73126300000000	0.10798600000000	0.00000000000000	0.11532200000000	-8.10871500000000	102.74727600000000	4.91488000000000	0.35395200000000	0.00000000000000	-0.09354300000000	0.00000000000000	21.89550400000000	0.00000000000000	0.00000000000000	2.03383700000000	0.00000000000000	
15.36494200000000	-38.87403400000000	741.49875599999996	53.30468500000000	0.10749300000000	0.00000000000000	0.11515400000000	-7.49746900000000	108.68650000000000	4.68829000000000	0.35658900000000	0.00000000000000	-0.09390900000000	0.00000000000000	21.76945300000000	0.00000000000000	0.00000000000000	2.02839900000000	0.00000000000000	
15.36661000000000	-39.17982400000000	738.08567100000005	52.85271200000000	0.10701000000000	0.00000000000000	0.11498200000000	-6.81059600000000	114.68246300000000	4.42345200000000	0.35902400000000	0.00000000000000	-0.09425800000000	0.00000000000000	21.64246300000000	0.00000000000000	0.00000000000000	2.01015400000000	0.00000000000000	
15.36827700000000	-39.49505900000000	734.55517499999996	52.37542800000000	0.10653500000000	0.00000000000000	0.11480600000000	-6.06162800000000	120.77927099999999	4.12660800000000	0.36127300000000	0.00000000000000	-0.09459400000000	0.00000000000000	21.51462800000000	0.00000000000000	0.00000000000000	1.98073700000000	0.00000000000000	
15.36994700000000	-39.81982400000000	730.90590599999996	51.87297600000000	0.10606800000000	0.00000000000000	0.11462500000000	-5.26169800000000	127.01455400000000	3.80282200000000	0.36334700000000	0.00000000000000	-0.09491700000000	0.00000000000000	21.38603100000000	0.00000000000000	0.00000000000000	1.94148700000000	0.00000000000000	
15.37161300000000	-40.15414700000000	727.13652500000001	51.34555200000000	0.10560700000000	0.00000000000000	0.11444000000000	-4.41928500000000	133.41776400000001	3.45583700000000	0.36525800000000	0.00000000000000	-0.09522900000000	0.00000000000000	21.25674600000000	0.00000000000000	0.00000000000000	1.89338100000000	0.00000000000000	
15.37327800000000	-40.49799200000000	723.24571600000002	50.79341200000000	0.10515300000000	0.00000000000000	0.11425200000000	-3.54019200000000	140.00935999999999	3.08805700000000	0.36701700000000	0.00000000000000	-0.09553200000000	0.00000000000000	21.12683800000000	0.00000000000000	0.00000000000000	1.83700800000000	0.00000000000000	
15.37494400000000	-40.85125600000000	719.23218699999995	50.21686700000000	0.10470300000000	0.00000000000000	0.11405900000000	-2.62774300000000	146.80077199999999	2.70064200000000	0.36863400000000	0.00000000000000	-0.09582500000000	0.00000000000000	20.99636400000000	0.00000000000000	0.00000000000000	1.77258500000000	0.00000000000000	
15.37661200000000	-41.21376800000000	715.09467400000005	49.61628400000000	0.10425800000000	0.00000000000000	0.11386200000000	-1.68312400000000	153.79500700000000	2.29366700000000	0.37011500000000	0.00000000000000	-0.09611000000000	0.00000000000000	20.86536900000000	0.00000000000000	0.00000000000000	1.69999000000000	0.00000000000000	
